<svg xmlns="http://www.w3.org/2000/svg" viewBox="0 0 100 100">
  <defs>
    <radialGradient id="hg" cx="38%" cy="30%" r="68%" gradientUnits="objectBoundingBox">
      <stop offset="0%"   stop-color="#FFE566"/>
      <stop offset="45%"  stop-color="#D4AF37"/>
      <stop offset="100%" stop-color="#8B6508"/>
    </radialGradient>
    <filter id="glow" x="-25%" y="-25%" width="150%" height="150%">
      <feGaussianBlur in="SourceGraphic" stdDeviation="2.5" result="blur"/>
      <feMerge>
        <feMergeNode in="blur"/>
        <feMergeNode in="SourceGraphic"/>
      </feMerge>
    </filter>
  </defs>

  <!-- Heart body -->
  <path
    d="M50 84 C49 84 9 61 9 36.5 C9 23.5 19.2 13 32 13 C39.6 13 46.5 16.9 50 22.9 C53.5 16.9 60.4 13 68 13 C80.8 13 91 23.5 91 36.5 C91 61 51 84 50 84Z"
    fill="url(#hg)"
    filter="url(#glow)"
  />

  <!-- Badge background -->
  <circle cx="66" cy="30" r="16" fill="#0B1120" fill-opacity="0.82"/>
  <!-- Badge ring -->
  <circle cx="66" cy="30" r="15.5" fill="none" stroke="#D4AF37" stroke-width="1.5"/>

  <!-- Medical cross (white) -->
  <rect x="63.5" y="23"   width="5" height="14" rx="2.5" fill="white"/>
  <rect x="59.5" y="27"   width="13" height="6"  rx="3"   fill="white"/>
</svg>
